<svg version="1.1" id="Layer_1" xmlns="http://www.w3.org/2000/svg" xmlns:xlink="http://www.w3.org/1999/xlink" x="0px" y="0px"
	 width="100%" viewBox="0 0 1024 1024" enable-background="new 0 0 1024 1024" xml:space="preserve">
<path fill="#000000" opacity="1.000000" stroke="none" 
	d="
M1.000000,376.000000 
	C1.000000,250.666687 1.000000,125.833366 1.000000,1.000034 
	C342.333282,1.000022 683.666565,1.000022 1025.000000,1.000011 
	C1025.000000,342.333252 1025.000000,683.666504 1025.000000,1024.999756 
	C683.666809,1024.999878 342.333618,1024.999878 1.000206,1025.000000 
	C1.000000,808.833313 1.000000,592.666687 1.000000,376.000000 
M885.058411,899.054260 
	C885.058411,899.054260 885.061096,899.142700 885.582642,898.967285 
	C885.770264,898.663208 885.957825,898.359131 886.054443,898.053711 
	C886.054443,898.053711 886.056152,898.144653 886.579163,897.969238 
	C886.767639,897.664856 886.956116,897.360474 887.054688,897.054688 
	C887.054688,897.054688 887.056213,897.144653 887.579163,896.969238 
	C887.767639,896.664856 887.956116,896.360535 888.055298,896.054871 
	C888.055298,896.054871 888.057068,896.144165 888.580688,895.968262 
	C888.769104,895.663208 888.957581,895.358154 889.053528,895.052002 
	C889.053528,895.052002 889.055420,895.144409 889.582825,894.966675 
	C889.771484,894.658325 889.960144,894.349976 890.042542,894.041077 
	C890.042542,894.041077 890.044312,894.147278 890.577515,893.969421 
	C890.768311,893.658386 890.959106,893.347351 891.049194,893.037476 
	C891.049194,893.037476 891.052673,893.138184 891.763245,893.038391 
	C892.219971,892.378906 892.676758,891.719482 893.041016,891.055969 
	C893.041016,891.055969 893.039734,891.148560 893.570557,890.973816 
	C893.761841,890.666321 893.953186,890.358887 894.046265,890.049072 
	C894.046265,890.049072 894.046692,890.147278 894.569763,889.974854 
	C894.759216,889.672546 894.948669,889.370239 895.004883,889.000000 
	C895.004883,889.000000 895.135254,889.067688 895.753845,888.833435 
	C896.222046,887.884399 896.690308,886.935303 897.001770,885.992859 
	C897.001770,885.992859 897.007935,886.149658 897.560120,885.978027 
	C897.757263,885.659790 897.954407,885.341553 898.036926,885.025330 
	C898.036926,885.025330 898.040588,885.139893 898.762085,885.039062 
	C900.203003,883.065063 901.643860,881.091064 903.006409,879.062988 
	C903.006409,879.062988 903.048157,879.148438 903.565918,878.977356 
	C903.754028,878.678833 903.942139,878.380310 904.039124,878.010498 
	C904.039124,878.010498 904.143433,878.060913 904.756042,877.831604 
	C905.223022,876.894287 905.690002,875.956970 906.026672,875.021912 
	C906.026672,875.021912 906.030273,875.152222 906.559753,874.979919 
	C906.752563,874.675476 906.945374,874.370972 907.026245,873.985413 
	C907.026245,873.985413 907.126831,874.077393 907.766418,873.821899 
	C909.224976,871.227722 910.683594,868.633606 912.051819,866.041321 
	C912.051819,866.041321 912.056213,866.131592 912.676453,865.884583 
	C912.837708,865.248352 912.998901,864.612061 912.999756,863.982849 
	C912.999756,863.982849 913.006409,864.143250 913.547241,863.985901 
	C913.743652,863.679321 913.940125,863.372742 914.040588,863.001770 
	C914.040588,863.001770 914.113770,863.091064 914.758972,862.829346 
	C916.551819,859.237488 918.344727,855.645569 920.066833,852.048950 
	C920.066833,852.048950 920.078369,852.118958 920.737183,851.826050 
	C922.427185,848.419250 924.341614,845.101990 925.745300,841.581116 
	C927.215759,837.892578 927.836670,833.846863 929.459961,830.241394 
	C933.809204,820.580933 935.789368,810.495483 935.960327,799.120667 
	C936.252869,795.435852 936.545410,791.751099 936.989746,787.126587 
	C936.996277,630.686462 937.011841,474.246338 937.001648,317.806213 
	C936.999634,287.489197 936.897156,257.172180 937.001770,225.951691 
	C936.909180,225.353088 936.816650,224.754471 936.739075,223.430115 
	C934.969788,212.561890 933.258484,201.683502 931.359192,190.838013 
	C931.117188,189.456039 929.893433,188.245987 929.025208,186.142532 
	C928.915222,185.174576 928.973328,184.150223 928.670349,183.246979 
	C922.540771,164.968719 912.865479,148.647949 900.992126,133.575684 
	C900.062012,132.394928 898.414124,131.779602 897.000000,131.000000 
	C897.000000,131.000000 897.098755,130.900421 897.024475,130.187332 
	C891.723145,125.097466 886.421814,120.007599 881.066223,115.000031 
	C881.066223,115.000031 881.151733,114.950806 880.971252,114.438087 
	C880.674500,114.248108 880.377686,114.058128 880.070068,113.938911 
	C880.070068,113.938911 880.141113,113.930122 879.961060,113.420921 
	C879.664062,113.233597 879.367004,113.046280 879.012878,112.968155 
	C879.012878,112.968155 879.048706,112.850288 879.017334,112.111412 
	C874.710205,108.735291 870.555481,105.134804 866.038696,102.067505 
	C863.345398,100.238541 860.083740,99.246620 857.008972,97.969887 
	C857.008972,97.969887 857.100464,97.901413 857.023682,97.168007 
	C855.412598,95.986694 853.923035,94.566826 852.165894,93.672394 
	C848.162354,91.634491 844.113586,89.632683 839.930786,88.008842 
	C824.473755,82.008133 808.904541,76.366165 791.612793,75.126892 
	C790.117065,75.082047 788.621338,74.997963 787.125610,74.997932 
	C611.932678,74.993790 436.739716,74.951057 261.546875,75.083878 
	C247.729141,75.094353 233.878769,75.952942 220.112411,77.185997 
	C214.952713,77.648148 209.989426,80.303291 204.111115,81.991348 
	C193.946777,85.929558 183.745743,89.777451 173.647949,93.879448 
	C171.537445,94.736786 169.807861,96.531845 168.000000,97.997864 
	C168.000000,97.997864 167.902161,97.897285 167.168610,97.973846 
	C163.418411,100.610130 159.668213,103.246407 155.956375,105.950180 
	C155.956375,105.950180 155.892258,105.906387 155.171539,105.973763 
	C152.073685,108.625969 148.975815,111.278175 145.974838,113.939461 
	C145.974838,113.939461 145.981445,113.842361 145.330994,113.968437 
	C144.533752,114.598267 143.736496,115.228096 142.866745,115.861526 
	C142.866745,115.861526 142.862701,115.933998 142.171173,115.974266 
	C138.219650,119.707909 134.002441,123.204506 130.396164,127.246201 
	C127.205956,130.821579 124.695961,135.003906 121.973152,138.979675 
	C121.973152,138.979675 121.911804,138.892136 121.192131,138.972916 
	C119.430893,141.611221 117.669655,144.249542 115.961014,146.967819 
	C115.961014,146.967819 115.886620,146.907486 115.276558,147.147812 
	C114.804352,148.079178 114.332146,149.010544 113.954086,150.000000 
	C113.954086,150.000000 113.883972,149.914474 113.242935,150.178955 
	C111.122620,154.092636 109.002296,158.006317 106.962929,161.959595 
	C106.962929,161.959595 106.916801,161.882187 106.316971,162.129745 
	C106.156570,162.747803 105.996162,163.365845 105.913383,163.974594 
	C105.913383,163.974594 105.900749,163.897446 105.246628,164.175888 
	C102.881439,169.784470 100.516243,175.393051 97.852028,181.682068 
	C92.542351,190.897278 90.380363,200.933182 90.027992,211.484772 
	C90.027992,211.484772 90.085136,211.519577 89.595062,211.937103 
	C89.354881,212.269791 89.114700,212.602478 88.156425,213.346420 
	C87.436630,221.486938 86.093941,229.627045 86.088577,237.768036 
	C85.969521,418.641663 85.988045,599.515442 86.040710,780.389160 
	C86.042534,786.637207 86.388817,792.917542 87.114098,799.119751 
	C87.489372,802.328857 89.050514,805.399353 90.096069,808.464050 
	C90.096069,808.464050 90.028908,808.439941 90.028137,809.401001 
	C90.218651,811.342285 90.098724,813.377197 90.651253,815.209290 
	C93.683174,825.262573 96.664803,835.341431 100.135391,845.246216 
	C101.368134,848.764282 103.927292,851.817566 105.985306,855.012695 
	C105.985306,855.012695 105.891640,855.096924 105.974045,855.831787 
	C108.273010,859.579163 110.571983,863.326599 112.981430,866.992615 
	C112.981430,866.992615 112.863701,867.070435 113.049240,867.594971 
	C113.359352,867.782654 113.669456,867.970337 113.975822,868.043091 
	C113.975822,868.043091 113.861031,868.048828 113.969467,868.777893 
	C116.933327,872.873230 119.897186,876.968506 122.874031,881.098694 
	C122.874031,881.098694 122.907265,881.115417 122.971321,881.788818 
	C124.265045,883.211731 125.558762,884.634583 126.951439,886.016052 
	C126.951439,886.016052 126.866882,886.081909 127.044563,886.590515 
	C127.342476,886.776001 127.640396,886.961487 127.938881,887.068359 
	C127.938881,887.068359 127.860268,887.071472 128.041122,887.585266 
	C128.341827,887.773254 128.642548,887.961304 128.943939,888.060486 
	C128.943939,888.060486 128.855103,888.063110 129.038406,888.580688 
	C129.341324,888.770325 129.644257,888.960022 129.997620,889.063232 
	C129.997620,889.063232 129.914536,889.118958 129.972595,889.813293 
	C132.632538,892.255005 135.292480,894.696777 137.954514,897.042480 
	C137.954514,897.042480 137.858475,897.042908 137.967697,897.743347 
	C139.600403,899.186157 141.233109,900.628967 142.961243,901.979736 
	C142.961243,901.979736 142.853851,902.063171 143.032104,902.571777 
	C143.327255,902.759033 143.622391,902.946350 143.990570,903.019409 
	C143.990570,903.019409 143.933197,903.142273 144.170959,903.733154 
	C144.788147,903.853577 145.405334,903.973938 146.181244,904.039185 
	C146.181244,904.039185 146.132828,903.878235 146.139450,904.271729 
	C146.242737,904.575806 146.454224,904.708679 147.391403,905.033936 
	C150.198822,907.343445 153.006241,909.652893 155.995026,912.514771 
	C156.307617,912.722290 156.620209,912.929810 157.012939,913.031067 
	C157.012939,913.031067 156.917908,913.122803 157.168381,913.756287 
	C159.077408,914.871033 160.986435,915.985779 162.998779,917.000000 
	C162.998779,917.000000 162.894196,917.101135 163.129486,917.712097 
	C164.053772,918.178711 164.978058,918.645264 165.995605,919.013000 
	C165.995605,919.013000 165.912506,919.121094 166.150116,919.719177 
	C166.767624,919.868347 167.385132,920.017578 167.987686,920.050720 
	C167.987686,920.050720 167.871857,920.067566 168.116974,920.677551 
	C168.742584,920.838867 169.368179,921.000122 169.982788,921.057190 
	C169.982788,921.057190 169.878799,921.070374 170.141785,921.724976 
	C173.746017,923.529907 177.350235,925.334839 180.953171,927.058777 
	C180.953171,927.058777 180.872360,927.063171 181.114273,927.676819 
	C181.741943,927.837708 182.369614,927.998535 182.985718,928.055908 
	C182.985718,928.055908 182.882538,928.069641 183.183197,928.740051 
	C184.142258,928.877991 185.101303,929.015930 186.040085,928.990967 
	C186.040085,928.990967 185.877014,929.009949 186.125931,929.700134 
	C192.079910,931.851135 198.033890,934.002136 203.981277,936.041870 
	C203.981277,936.041870 203.870148,936.050232 204.200394,936.746704 
	C205.935272,937.503296 207.602310,938.596436 209.416000,938.961853 
	C221.403915,941.377197 233.385010,944.005493 246.710739,942.982117 
	C417.875549,942.991943 589.040344,943.004150 760.205139,943.002380 
	C766.530945,943.002319 772.856750,942.865845 780.074219,942.919495 
	C788.616638,942.285339 797.197815,941.956848 805.684021,940.879822 
	C809.558350,940.388062 813.245361,938.419983 817.738220,937.008240 
	C818.197632,936.873596 818.657104,936.738953 819.536682,936.602905 
	C819.741211,936.406189 819.866821,936.168091 819.850708,936.021057 
	C819.850708,936.021057 819.980591,936.089111 820.809814,935.998230 
	C827.184631,934.388062 834.042969,934.052002 838.998230,929.031677 
	C838.998230,929.031677 838.984863,929.162598 839.667358,929.011414 
	C840.200317,928.666626 840.733337,928.321899 841.819763,928.038147 
	C841.987549,927.958801 842.155273,927.879395 842.750305,927.495483 
	C843.453918,927.099060 844.157471,926.702637 845.588989,926.069458 
	C856.854553,918.643616 868.120117,911.217773 879.791992,903.461548 
	C880.204468,902.915344 880.616943,902.369141 880.873901,901.936584 
	C880.873901,901.936584 880.983154,902.095215 881.646362,902.030640 
	C882.450012,901.402649 883.253723,900.774658 884.009277,900.043152 
	C884.009277,900.043152 884.079163,900.133179 884.594482,899.960022 
	C884.778625,899.658264 884.962769,899.356506 885.058411,899.054260 
z"/>
<path fill="#1961B7" opacity="1.000000" stroke="none" 
	d="
M936.837952,788.066284 
	C936.545410,791.751099 936.252869,795.435852 935.566895,799.730957 
	C932.606262,817.266785 927.712891,833.483948 920.455627,848.995544 
	C920.033386,849.897949 920.190735,851.071533 920.078369,852.118958 
	C920.078369,852.118958 920.066833,852.048950 919.756836,851.890198 
	C917.669067,855.517944 915.891418,859.304504 914.113770,863.091064 
	C914.113770,863.091064 914.040588,863.001770 913.727295,862.831299 
	C913.278198,863.154968 913.142334,863.649109 913.006470,864.143250 
	C913.006409,864.143250 912.999756,863.982849 912.695679,864.029053 
	C912.279846,864.760681 912.168091,865.446167 912.056274,866.131592 
	C912.056213,866.131592 912.051819,866.041321 911.746338,865.917542 
	C910.002808,868.554993 908.564819,871.316162 907.126831,874.077393 
	C907.126831,874.077393 907.026245,873.985413 906.701843,873.816406 
	C906.261719,874.148987 906.145996,874.650574 906.030273,875.152222 
	C906.030273,875.152222 906.026672,875.021912 905.661499,874.951233 
	C904.912048,875.940674 904.527771,877.000793 904.143433,878.060913 
	C904.143433,878.060913 904.039124,878.010498 903.691833,877.772156 
	C903.245728,878.072021 903.146912,878.610229 903.048096,879.148438 
	C903.048157,879.148438 903.006409,879.062988 902.822754,878.749084 
	C901.106262,880.670105 899.573425,882.904968 898.040588,885.139893 
	C898.040588,885.139893 898.036926,885.025330 897.730835,884.944458 
	C897.285889,885.292297 897.146912,885.720947 897.007935,886.149658 
	C897.007935,886.149658 897.001770,885.992859 896.664429,886.012024 
	C895.929871,887.043396 895.532593,888.055542 895.135254,889.067688 
	C895.135254,889.067688 895.004883,889.000000 894.673950,888.812256 
	C894.244263,889.132080 894.145447,889.639709 894.046692,890.147278 
	C894.046692,890.147278 894.046265,890.049072 893.702576,889.884399 
	C893.252502,890.195984 893.146179,890.672302 893.039795,891.148560 
	C893.039734,891.148560 893.041016,891.055969 892.725830,890.865356 
	C891.957947,891.495911 891.505310,892.317078 891.052673,893.138184 
	C891.052673,893.138184 891.049194,893.037476 890.703369,892.917114 
	C890.253113,893.246948 890.148682,893.697083 890.044312,894.147278 
	C890.044312,894.147278 890.042542,894.041077 889.687195,893.903564 
	C889.239685,894.225525 889.147583,894.684937 889.055420,895.144409 
	C889.055420,895.144409 889.053528,895.052002 888.688477,894.879700 
	C888.234680,895.186340 888.145935,895.665283 888.057129,896.144165 
	C888.057068,896.144165 888.055298,896.054871 887.689819,895.872192 
	C887.234985,896.174500 887.145569,896.659607 887.056213,897.144653 
	C887.056213,897.144653 887.054688,897.054688 886.689575,896.872192 
	C886.235046,897.174622 886.145630,897.659668 886.056152,898.144653 
	C886.056152,898.144653 886.054443,898.053711 885.683594,897.873535 
	C885.228821,898.176392 885.144958,898.659546 885.061035,899.142700 
	C885.061096,899.142700 885.058411,899.054260 884.659729,898.868774 
	C884.200439,899.166626 884.139771,899.649902 884.079163,900.133179 
	C884.079163,900.133179 884.009277,900.043152 883.886536,899.687866 
	C882.836914,900.253479 881.910034,901.174316 880.983154,902.095215 
	C880.983154,902.095215 880.873901,901.936584 880.916809,902.171265 
	C880.435059,902.867981 879.910400,903.329956 879.385742,903.791931 
	C868.120117,911.217773 856.854553,918.643616 845.043823,926.181763 
	C843.773438,926.796082 843.048218,927.297974 842.322998,927.799927 
	C842.155273,927.879395 841.987549,927.958801 841.158447,927.899902 
	C839.993103,928.228699 839.489014,928.695679 838.984863,929.162598 
	C838.984863,929.162598 838.998230,929.031677 838.697632,928.867676 
	C832.258240,931.165405 826.119385,933.627197 819.980591,936.089111 
	C819.980591,936.089111 819.850708,936.021057 820.062866,936.252563 
	C819.888794,936.524109 819.502686,936.564209 819.116516,936.604309 
	C818.657104,936.738953 818.197632,936.873596 816.964111,936.983887 
	C803.844421,938.730286 791.498779,940.501099 778.757324,942.169800 
	C777.548401,941.985840 776.735413,941.903992 775.567017,941.629211 
	C769.499756,941.570374 763.787720,941.704468 757.663330,941.899536 
	C756.142700,941.920105 755.034363,941.879700 753.571899,941.642212 
	C752.404114,941.301514 751.590759,941.033203 750.777100,941.032349 
	C727.820923,941.006714 704.864807,940.994507 681.908691,941.040710 
	C680.630188,941.043274 679.352783,941.563354 677.608521,941.904175 
	C672.742432,941.938721 668.342590,941.911621 663.592773,941.676025 
	C654.180237,941.606140 645.117676,941.744812 635.593445,941.944824 
	C631.400574,941.958252 627.669373,941.910461 623.586243,941.658569 
	C614.506287,941.600586 605.778381,941.746704 596.664978,941.955078 
	C595.502319,941.975098 594.725159,941.932800 593.597412,941.682007 
	C584.521606,941.601562 575.796387,941.729614 566.645752,941.920044 
	C564.791077,941.942261 563.361694,941.902161 561.580444,941.659058 
	C560.082642,941.302673 558.936768,941.015991 557.790710,941.015259 
	C524.325256,940.994751 490.859802,940.991943 457.394440,941.042725 
	C455.951324,941.044922 454.509033,941.583313 452.713135,941.930908 
	C451.885498,941.953125 451.411011,941.916260 450.585266,941.675049 
	C436.778137,941.323364 423.322357,941.158142 409.866089,941.067444 
	C408.929810,941.061157 407.989777,941.608582 406.590454,941.962402 
	C402.403320,941.983582 398.677216,941.940918 394.662018,941.702881 
	C392.600067,941.634277 390.827179,941.760925 388.667328,941.948242 
	C387.500763,941.964539 386.721161,941.920166 385.695831,941.695557 
	C384.320770,941.633362 383.191406,941.751404 381.619751,941.934021 
	C379.095123,941.953918 377.012787,941.909241 374.596375,941.668274 
	C371.195526,941.606750 368.128723,941.741455 364.600006,941.940491 
	C360.402344,941.955505 356.666595,941.906250 352.595917,941.662415 
	C349.195160,941.601868 346.129395,941.735840 342.654114,941.933838 
	C341.142944,941.957825 340.041321,941.917847 338.588654,941.671997 
	C337.258575,941.311829 336.279633,941.023560 335.300476,941.022827 
	C306.822632,941.001587 278.344727,940.998901 249.866959,941.044373 
	C248.577637,941.046387 247.289078,941.524536 245.956512,941.909424 
	C245.912857,942.037903 245.971649,942.302856 245.530029,942.237854 
	C232.627167,940.188660 220.167847,938.192200 207.701736,936.239136 
	C206.445511,936.042358 205.148331,936.106995 203.870148,936.050293 
	C203.870148,936.050232 203.981277,936.041870 204.035187,935.718628 
	C198.018417,933.266907 191.947708,931.138428 185.877014,929.009949 
	C185.877014,929.009949 186.040085,928.990967 185.907776,928.699158 
	C184.811157,928.294800 183.846848,928.182190 182.882538,928.069641 
	C182.882538,928.069641 182.985718,928.055908 183.013702,927.698730 
	C182.318558,927.248718 181.595459,927.155945 180.872360,927.063232 
	C180.872360,927.063171 180.953171,927.058777 181.095688,926.748535 
	C177.451736,924.648987 173.665268,922.859680 169.878815,921.070374 
	C169.878799,921.070374 169.982788,921.057190 170.016449,920.697632 
	C169.324005,920.247925 168.597931,920.157776 167.871857,920.067627 
	C167.871857,920.067566 167.987686,920.050720 167.993164,919.650757 
	C167.303253,919.207642 166.607880,919.164368 165.912506,919.121094 
	C165.912506,919.121094 165.995605,919.013000 166.269226,918.729675 
	C165.326614,917.997925 164.110413,917.549500 162.894196,917.101135 
	C162.894196,917.101135 162.998779,917.000000 163.259430,916.779358 
	C161.319366,915.413391 159.118637,914.268127 156.917908,913.122803 
	C156.917908,913.122803 157.012939,913.031067 157.183838,912.707703 
	C156.841049,912.243652 156.327377,912.102966 155.813675,911.962280 
	C153.006241,909.652893 150.198822,907.343445 146.753113,904.981140 
	C146.020935,904.809082 145.833954,904.673279 145.851700,904.573914 
	C145.894699,904.333008 146.032959,904.109009 146.132843,903.878235 
	C146.132828,903.878235 146.181244,904.039185 146.012787,903.618652 
	C145.207291,903.179565 144.570251,903.160889 143.933197,903.142273 
	C143.933197,903.142273 143.990570,903.019409 144.252975,902.659424 
	C143.961533,902.220642 143.407700,902.141907 142.853851,902.063171 
	C142.853851,902.063171 142.961243,901.979736 143.291351,901.844116 
	C141.700455,900.153320 139.779449,898.598145 137.858459,897.042969 
	C137.858475,897.042908 137.954514,897.042480 138.105621,896.755066 
	C135.476013,894.018127 132.695267,891.568542 129.914520,889.118958 
	C129.914536,889.118958 129.997620,889.063232 130.156311,888.681885 
	C129.828354,888.221436 129.341721,888.142273 128.855103,888.063110 
	C128.855103,888.063110 128.943939,888.060486 129.143021,887.666992 
	C128.848160,887.206116 128.354218,887.138794 127.860268,887.071472 
	C127.860268,887.071472 127.938881,887.068359 128.165085,886.650757 
	C127.883163,886.182739 127.375023,886.132324 126.866882,886.081909 
	C126.866882,886.081909 126.951439,886.016052 127.329475,885.890747 
	C126.107422,884.215515 124.507339,882.665466 122.907257,881.115417 
	C122.907265,881.115417 122.874031,881.098694 123.264648,880.925964 
	C120.390518,876.518433 117.125763,872.283630 113.861023,868.048828 
	C113.861031,868.048828 113.975822,868.043091 114.063896,867.669006 
	C113.722549,867.220093 113.293129,867.145264 112.863701,867.070435 
	C112.863701,867.070435 112.981430,866.992615 113.315109,866.846069 
	C111.063065,862.831970 108.477356,858.964417 105.891647,855.096924 
	C105.891640,855.096924 105.985306,855.012695 106.301910,854.822327 
	C102.864059,845.396973 98.882103,836.245789 95.436996,826.896790 
	C93.225349,820.895203 91.804321,814.602295 90.028908,808.439941 
	C90.028908,808.439941 90.096069,808.464050 90.276466,808.044983 
	C89.681931,799.344238 88.239494,791.063171 88.231621,782.780762 
	C88.101898,646.303162 87.882637,509.824432 88.298019,373.347839 
	C88.460693,319.898163 86.030907,266.404968 90.130707,212.627045 
	C90.173950,212.013763 90.129547,211.766678 90.085136,211.519577 
	C90.085136,211.519577 90.027992,211.484772 90.349083,211.180023 
	C93.439049,200.914856 96.207924,190.954437 99.178490,180.707657 
	C101.553696,174.913345 103.727219,169.405396 105.900749,163.897446 
	C105.900749,163.897446 105.913383,163.974594 106.310959,164.044510 
	C106.777962,163.370346 106.847382,162.626266 106.916801,161.882187 
	C106.916801,161.882187 106.962929,161.959595 107.228043,162.192627 
	C109.623428,158.255264 111.753700,154.084869 113.883972,149.914474 
	C113.883972,149.914474 113.954086,150.000000 114.300041,150.170700 
	C115.059540,149.196762 115.473076,148.052124 115.886620,146.907486 
	C115.886620,146.907486 115.961014,146.967819 116.168472,147.256683 
	C118.221222,144.661072 120.066513,141.776596 121.911804,138.892136 
	C121.911804,138.892136 121.973152,138.979675 122.219086,139.201965 
	C129.004623,132.393829 135.561996,125.379684 142.049896,118.301857 
	C142.566757,117.737999 142.603073,116.733650 142.862701,115.933998 
	C142.862701,115.933998 142.866745,115.861526 143.061554,116.289230 
	C144.164734,115.758736 145.073090,114.800552 145.981445,113.842361 
	C145.981445,113.842361 145.974838,113.939461 146.237885,114.157295 
	C149.631378,111.552223 152.761826,108.729309 155.892273,105.906387 
	C155.892258,105.906387 155.956375,105.950180 156.152405,106.271179 
	C158.626663,105.073486 160.966995,103.638474 163.162964,102.008896 
	C164.837570,100.766220 166.329147,99.276886 167.902161,97.897278 
	C167.902161,97.897285 168.000000,97.997864 168.204239,98.279533 
	C181.064285,93.092499 193.720078,87.623787 206.761932,82.139542 
	C220.621063,80.142555 234.092636,76.450050 247.567444,76.438133 
	C429.042236,76.277557 610.517456,76.629555 792.365479,76.995056 
	C813.629822,79.958374 833.538208,85.855728 852.105103,96.009651 
	C853.652344,96.855789 855.429932,97.280762 857.100464,97.901413 
	C857.100464,97.901413 857.008972,97.969887 856.800903,98.233109 
	C863.241089,103.164101 869.872009,107.856995 876.566040,112.458153 
	C877.189087,112.886398 878.211670,112.733406 879.048706,112.850296 
	C879.048706,112.850288 879.012878,112.968155 878.780884,113.350128 
	C879.079651,113.798111 879.610413,113.864120 880.141113,113.930122 
	C880.141113,113.930122 880.070068,113.938911 879.782349,114.302872 
	C880.046936,114.761490 880.599365,114.856148 881.151733,114.950806 
	C881.151733,114.950806 881.066223,115.000031 880.746704,115.165482 
	C885.374878,120.386314 890.307068,125.457092 895.301453,130.465897 
	C895.672546,130.838058 896.489258,130.765961 897.098755,130.900421 
	C897.098755,130.900421 897.000000,131.000000 896.741089,131.206390 
	C910.605164,147.909607 920.769165,166.664185 928.217712,187.370544 
	C930.552551,198.544235 932.821289,209.343597 935.170959,220.125351 
	C935.473938,221.515656 936.196045,222.814606 936.724060,224.155869 
	C936.816650,224.754471 936.909180,225.353088 936.579712,226.673126 
	C936.097717,228.221436 935.985413,229.048294 935.985474,229.875168 
	C936.000183,414.548187 936.020996,599.221191 936.077881,783.894226 
	C936.078308,785.284973 936.573669,786.675598 936.837952,788.066284 
M370.048615,600.204651 
	C371.648865,597.168762 373.249146,594.132874 374.900421,591.000244 
	C368.034027,588.402039 367.071503,585.031311 368.569702,577.472107 
	C370.129547,569.601929 370.739563,561.543518 372.214081,552.985107 
	C375.542297,553.756714 376.916992,555.713745 376.861786,559.252197 
	C376.693390,570.040588 376.800690,580.833191 376.800690,591.553955 
	C384.404724,592.447998 387.156860,591.267700 387.197021,586.923096 
	C387.310944,574.611206 387.288757,562.295898 387.115997,549.984802 
	C387.055145,545.648682 383.995209,542.997375 379.735809,542.994812 
	C363.429749,542.985107 347.123627,542.975525 330.817627,543.012146 
	C326.332489,543.022217 323.585724,545.532898 323.528717,550.008118 
	C323.374084,562.153137 323.396057,574.300476 323.361816,586.446899 
	C323.351288,590.171997 324.707367,592.524780 328.968506,592.012756 
	C330.283112,591.854797 331.624878,591.923218 333.259674,592.593384 
	C333.842682,595.397095 334.425690,598.200745 334.195435,601.186768 
	C331.424591,600.960449 329.793182,601.725342 329.977722,605.020447 
	C330.200745,609.002441 330.036865,613.007935 329.991486,617.002625 
	C329.954193,620.287781 331.492432,621.943787 334.812317,621.939758 
	C348.628845,621.922852 362.447083,622.014221 376.259033,621.758545 
	C377.566803,621.734375 379.853729,619.639465 379.945709,618.378906 
	C380.352020,612.809814 380.121399,607.194214 380.121399,601.388733 
	C376.252258,601.210510 373.126587,601.066589 370.048615,600.204651 
M693.428467,555.668579 
	C693.428467,567.386169 693.428467,579.103760 693.428467,590.879028 
	C695.233154,591.020996 696.044067,591.106628 696.857239,591.145264 
	C703.510986,591.461487 703.967468,591.032715 703.970520,584.372070 
	C703.975525,573.565369 703.994385,562.758484 703.954895,551.951965 
	C703.930176,545.199951 701.610535,542.938354 695.081604,542.952698 
	C679.952393,542.985901 664.823059,542.977112 649.693787,542.978943 
	C642.738953,542.979736 640.302429,545.246826 640.260376,552.088257 
	C640.193848,562.894653 640.233093,573.701721 640.244324,584.508545 
	C640.250977,590.885864 640.550110,591.170349 646.991882,592.061890 
	C647.666016,595.065308 648.340210,598.068726 648.280457,601.405334 
	C648.031372,607.520020 647.658569,613.635498 647.698425,619.748291 
	C647.703125,620.468994 649.966187,621.780212 651.194641,621.794983 
	C665.147522,621.962708 679.104309,622.027283 693.054810,621.798828 
	C694.398254,621.776855 696.753845,619.682312 696.849976,618.414124 
	C697.270447,612.867981 697.030945,607.271790 697.030945,601.000244 
	C691.885864,601.000244 687.439270,601.000244 683.140503,600.320496 
	C684.751038,598.738892 686.097412,596.510986 688.031311,595.720825 
	C691.268860,594.398193 692.077942,592.379028 692.031433,589.201477 
	C691.902649,580.404663 691.920959,571.603943 692.032166,562.806641 
	C692.064941,560.207947 692.600037,557.615662 693.428467,555.668579 
M303.917236,512.785889 
	C309.869232,512.785889 315.821198,512.785889 322.095947,512.785889 
	C322.095947,497.036499 322.065155,482.057648 322.109894,467.078979 
	C322.130035,460.341400 325.758911,456.067230 332.273773,455.970459 
	C347.602722,455.742737 362.938812,455.760071 378.268738,455.948273 
	C384.591736,456.025909 388.153839,460.083344 388.204987,466.643311 
	C388.297241,478.475281 388.256195,490.308258 388.268829,502.140839 
	C388.272491,505.594452 388.269379,509.048065 388.269379,512.661011 
	C472.224365,512.661011 555.588013,512.661011 639.187622,512.661011 
	C639.187622,497.425751 639.175964,482.597687 639.192200,467.769623 
	C639.201050,459.676178 642.931641,455.931519 651.150024,455.905609 
	C665.148926,455.861450 679.148438,455.856903 693.147217,455.926544 
	C701.196167,455.966583 704.780945,459.528503 704.827454,467.516235 
	C704.906921,481.181763 704.873169,494.847900 704.910522,508.513702 
	C704.914001,509.777679 705.086548,511.041229 705.185913,512.376709 
	C724.005859,512.376709 742.473572,512.502686 760.938293,512.327820 
	C771.427734,512.228516 781.407898,509.454742 790.746521,504.780914 
	C811.411865,494.438293 824.216125,478.364380 824.484924,454.573029 
	C824.874634,420.081085 824.590393,385.580841 824.493652,351.084442 
	C824.448547,334.995728 814.715393,325.391449 798.491272,325.251801 
	C788.159485,325.162872 777.826538,325.217865 767.494080,325.217468 
	C633.169922,325.212128 498.845734,325.212921 364.521576,325.201843 
	C319.358398,325.198120 274.195221,325.138092 229.032028,325.159515 
	C212.154846,325.167511 202.249237,335.020782 202.216080,351.825043 
	C202.151947,384.322876 202.401810,416.823242 202.064743,449.317810 
	C201.895599,465.625214 206.624420,479.759369 216.840164,491.837280 
	C210.250900,491.933380 211.071564,496.723419 210.227814,501.324097 
	C210.091629,502.135132 209.837677,502.945953 209.836029,503.757263 
	C209.703964,568.919189 209.458740,634.081360 209.562027,699.243042 
	C209.591446,717.810730 221.194031,732.412537 239.533051,735.948547 
	C250.028793,737.972168 261.054413,737.687195 271.841858,737.692810 
	C440.168243,737.780029 608.494629,737.730469 776.821045,737.754456 
	C800.057007,737.757812 817.263000,721.320984 817.306702,698.077698 
	C817.427795,633.749451 817.280029,569.420715 817.217834,505.092163 
	C817.216553,503.762939 816.964844,502.434021 816.748779,500.304718 
	C803.184204,515.110229 786.776428,522.545227 768.237061,524.563965 
	C755.702881,525.928772 742.955933,525.398010 730.302307,525.588745 
	C722.026123,525.713562 713.746521,525.612305 705.168457,525.612305 
	C705.001709,530.771179 703.885315,535.165527 709.000610,538.793884 
	C711.377197,540.479614 712.904846,544.813049 713.005920,548.003601 
	C713.433228,561.489258 713.306396,574.998840 713.059937,588.493774 
	C713.014282,590.991150 712.224304,594.578552 710.492371,595.731323 
	C705.604370,598.984741 706.368896,603.498169 706.321655,608.013550 
	C706.286804,611.346375 706.204163,614.681885 706.293152,618.012146 
	C706.409058,622.347168 705.668640,626.190247 702.106873,629.259644 
	C701.110168,630.118591 700.807983,632.186401 700.787720,633.707764 
	C700.683289,641.538940 700.866333,649.373840 700.777649,657.205444 
	C700.602844,672.639893 688.223450,684.113525 671.901123,684.090271 
	C655.317566,684.066528 643.059998,672.398987 643.092590,656.665405 
	C643.108826,648.832397 643.186157,640.998779 643.094727,633.167053 
	C643.078857,631.808289 642.776794,630.011292 641.890747,629.181946 
	C638.384277,625.899841 637.580444,621.897217 637.715759,617.372070 
	C637.865173,612.376892 637.910522,607.366333 637.663147,602.379211 
	C637.588623,600.877014 636.378601,599.434204 635.701416,597.958313 
	C634.164856,594.609009 631.450378,591.303467 631.314270,587.896301 
	C630.789124,574.750854 630.881226,561.567017 631.234436,548.410645 
	C631.317261,545.327087 632.448364,541.199158 634.623047,539.462585 
	C639.479065,535.584839 639.338379,530.874084 638.622620,525.128906 
	C636.738281,524.751953 634.856018,524.060486 632.969299,524.048157 
	C618.815247,523.955566 604.660400,523.995911 590.505798,523.996582 
	C525.228210,523.999634 459.950531,523.983826 394.673065,524.089539 
	C392.450836,524.093140 390.230560,525.320679 388.081940,526.873108 
	C387.630920,531.770996 388.286285,535.912170 392.548462,539.539856 
	C394.718353,541.386719 395.933990,545.399414 396.015381,548.474487 
	C396.367493,561.785034 396.285614,575.113892 396.003845,588.428528 
	C395.948181,591.058167 395.087738,594.791687 393.253815,596.038696 
	C388.910553,598.992126 389.375427,602.812378 389.451019,606.904846 
	C389.530945,611.232178 389.637909,615.571167 389.400116,619.886719 
	C389.284973,621.976868 389.087799,624.894043 387.754669,625.936218 
	C382.936462,629.702698 383.979462,634.700256 383.950073,639.549988 
	C383.919769,644.544922 383.484039,649.595093 384.055756,654.524841 
	C385.570068,667.582336 375.716736,682.177795 358.271271,683.848083 
	C341.870392,685.418396 325.048065,674.309692 326.112549,655.513306 
	C326.526093,648.210388 326.282532,640.862183 326.104797,633.540283 
	C326.065430,631.920105 325.070129,630.311829 324.460022,628.719177 
	C323.255798,625.575623 321.338623,622.529175 320.943329,619.292725 
	C320.342194,614.370911 320.647644,609.316345 320.836578,604.328308 
	C320.948914,601.362427 320.100464,599.392273 317.916199,597.125244 
	C315.823151,594.952942 314.245850,591.358582 314.157776,588.339111 
	C313.769592,575.030151 313.714081,561.692627 314.202942,548.389832 
	C314.331421,544.893372 315.922272,540.371277 318.457855,538.278015 
	C323.067261,534.472656 321.984558,530.412354 321.550171,525.629211 
	C304.967072,525.629211 288.658875,525.804688 272.357788,525.540100 
	C266.105347,525.438660 259.869171,524.332947 254.023972,522.994995 
	C256.795746,519.208862 260.521332,517.831909 264.267120,520.806946 
	C268.326080,524.030823 272.698334,524.088501 277.352844,524.006409 
	C282.156097,523.921631 286.962372,524.025879 291.766632,523.976074 
	C297.595551,523.915649 302.736145,518.844055 303.917236,512.785889 
M647.358704,312.280273 
	C659.060242,318.483154 671.455383,313.701172 683.832214,315.567688 
	C682.821594,305.229553 679.425964,296.766907 674.664673,288.906250 
	C659.158875,263.307037 635.652161,247.757294 608.187073,237.962158 
	C570.095093,224.377045 530.598389,221.026352 490.459564,223.885925 
	C464.243683,225.753601 438.504730,230.168671 414.004547,240.001572 
	C389.440430,249.860123 367.750458,263.655945 353.390503,286.838135 
	C348.103668,295.372955 344.470917,304.448273 343.336609,315.303162 
	C353.620758,315.303162 363.291565,315.820709 372.849396,315.008759 
	C375.987518,314.742157 379.317261,311.461884 381.703918,308.794312 
	C385.777008,304.241882 388.799805,298.740723 392.927673,294.248077 
	C404.018829,282.176697 418.079529,274.305481 433.386322,269.357788 
	C487.363098,251.910645 541.646729,251.804886 595.388672,269.929871 
	C617.237366,277.298523 635.978149,290.062958 647.358704,312.280273 
M378.674530,528.342529 
	C378.674530,507.290802 378.674530,486.239075 378.674530,465.216675 
	C362.748932,465.216675 347.507812,465.216675 332.071045,465.216675 
	C332.071045,488.367767 332.071045,511.186218 332.071045,534.078369 
	C347.765778,534.078369 362.999084,534.078369 378.464844,534.078369 
	C378.547668,532.239502 378.613800,530.771301 378.674530,528.342529 
M695.588806,482.501709 
	C695.588806,476.738159 695.588806,470.974640 695.588806,465.270569 
	C679.668335,465.270569 664.436768,465.270569 649.247803,465.270569 
	C649.247803,488.404510 649.247803,511.131592 649.247803,534.063477 
	C664.701721,534.063477 679.798767,534.063477 695.584839,534.063477 
	C695.584839,517.045471 695.584839,500.273163 695.588806,482.501709 
M357.498108,630.963745 
	C350.272949,630.963745 343.047791,630.963745 335.795654,630.963745 
	C335.613403,632.325012 335.455902,632.970154 335.451355,633.616272 
	C335.397766,641.257874 335.237122,648.901794 335.362366,656.540833 
	C335.528656,666.683716 343.687531,674.322144 354.663910,674.865051 
	C364.763580,675.364624 373.591278,668.361267 374.278198,658.330017 
	C374.887238,649.436340 374.405945,640.468079 374.405945,630.964844 
	C368.713837,630.964844 363.605194,630.964844 357.498108,630.963745 
M680.390198,673.127991 
	C686.175293,670.657166 690.376343,666.399353 690.762878,660.159302 
	C691.353821,650.620117 690.917908,641.017395 690.917908,631.229370 
	C678.011169,631.229370 665.486206,631.229370 652.593628,631.229370 
	C652.593628,640.482788 652.406067,649.443359 652.654602,658.391907 
	C652.844238,665.218689 656.744995,669.812134 662.779602,672.625000 
	C668.270569,675.184387 673.913635,675.804626 680.390198,673.127991 
z"/>
<path fill="#FDFDFE" opacity="1.000000" stroke="none" 
	d="
M90.043053,212.993271 
	C86.030907,266.404968 88.460693,319.898163 88.298019,373.347839 
	C87.882637,509.824432 88.101898,646.303162 88.231621,782.780762 
	C88.239494,791.063171 89.681931,799.344238 90.266373,808.079224 
	C89.050514,805.399353 87.489372,802.328857 87.114098,799.119751 
	C86.388817,792.917542 86.042534,786.637207 86.040710,780.389160 
	C85.988045,599.515442 85.969521,418.641663 86.088577,237.768036 
	C86.093941,229.627045 87.436630,221.486938 88.807480,213.156555 
	C89.653374,212.975555 89.848213,212.984421 90.043053,212.993271 
z"/>
<path fill="#F8FAFC" opacity="1.000000" stroke="none" 
	d="
M791.992615,76.854507 
	C610.517456,76.629555 429.042236,76.277557 247.567444,76.438133 
	C234.092636,76.450050 220.621063,80.142555 206.403320,82.081253 
	C205.417969,82.011871 205.177277,81.985237 204.936600,81.958588 
	C209.989426,80.303291 214.952713,77.648148 220.112411,77.185997 
	C233.878769,75.952942 247.729141,75.094353 261.546875,75.083878 
	C436.739716,74.951057 611.932678,74.993790 787.125610,74.997932 
	C788.621338,74.997963 790.117065,75.082047 791.805786,75.749344 
	C791.998718,76.371796 791.992615,76.854515 791.992615,76.854507 
z"/>
<path fill="#C6D9F0" opacity="1.000000" stroke="none" 
	d="
M936.913818,787.596436 
	C936.573669,786.675598 936.078308,785.284973 936.077881,783.894226 
	C936.020996,599.221191 936.000183,414.548187 935.985474,229.875168 
	C935.985413,229.048294 936.097717,228.221436 936.499390,227.124847 
	C936.897156,257.172180 936.999634,287.489197 937.001648,317.806213 
	C937.011841,474.246338 936.996277,630.686462 936.913818,787.596436 
z"/>
<path fill="#8DB2DB" opacity="1.000000" stroke="none" 
	d="
M623.938232,941.862671 
	C627.669373,941.910461 631.400574,941.958252 636.056274,941.990295 
	C645.968140,941.944519 654.955444,941.914551 663.942810,941.884521 
	C668.342590,941.911621 672.742432,941.938721 678.069946,941.947632 
	C703.973877,941.899353 728.949951,941.869324 753.926086,941.839294 
	C755.034363,941.879700 756.142700,941.920105 758.124023,941.943237 
	C764.638794,941.891357 770.280579,941.856689 775.922363,941.822083 
	C776.735413,941.903992 777.548401,941.985840 778.806396,942.297729 
	C779.251343,942.527710 779.182556,942.792969 779.182556,942.792969 
	C772.856750,942.865845 766.530945,943.002319 760.205139,943.002380 
	C589.040344,943.004150 417.875549,942.991943 246.247620,942.746582 
	C245.784485,942.511108 245.971649,942.302856 245.971649,942.302856 
	C245.971649,942.302856 245.912857,942.037903 246.420700,941.977783 
	C277.598907,941.904419 308.269287,941.891113 338.939667,941.877869 
	C340.041321,941.917847 341.142944,941.957825 343.100281,941.978760 
	C346.947601,941.925415 349.939240,941.891235 352.930878,941.857056 
	C356.666595,941.906250 360.402344,941.955505 365.046265,941.985962 
	C368.946442,941.932861 371.938446,941.898682 374.930450,941.864563 
	C377.012787,941.909241 379.095123,941.953918 382.006226,941.977966 
	C383.870514,941.930176 384.906036,941.902954 385.941559,941.875732 
	C386.721161,941.920166 387.500763,941.964539 389.086609,941.994141 
	C391.578918,941.952332 393.264984,941.925293 394.951080,941.898315 
	C398.677216,941.940918 402.403320,941.983582 407.053223,942.010010 
	C422.296844,941.955688 436.616699,941.917542 450.936554,941.879395 
	C451.411011,941.916260 451.885498,941.953125 453.174988,941.975464 
	C489.970795,941.927979 525.951538,941.895020 561.932312,941.862061 
	C563.361694,941.902161 564.791077,941.942261 567.107300,941.965820 
	C576.645386,941.929626 585.296631,941.910034 593.947937,941.890442 
	C594.725159,941.932800 595.502319,941.975098 597.128113,942.001465 
	C606.630554,941.944519 615.284363,941.903564 623.938232,941.862671 
z"/>
<path fill="#ECF2F9" opacity="1.000000" stroke="none" 
	d="
M928.176575,186.990784 
	C920.769165,166.664185 910.605164,147.909607 896.790955,131.157135 
	C898.414124,131.779602 900.062012,132.394928 900.992126,133.575684 
	C912.865479,148.647949 922.540771,164.968719 928.670349,183.246979 
	C928.973328,184.150223 928.915222,185.174576 928.837646,186.552795 
	C928.650146,186.963058 928.176575,186.990784 928.176575,186.990784 
z"/>
<path fill="#ECF2F9" opacity="1.000000" stroke="none" 
	d="
M792.365479,76.995064 
	C791.992615,76.854515 791.998718,76.371796 792.019775,76.131325 
	C808.904541,76.366165 824.473755,82.008133 839.930786,88.008842 
	C844.113586,89.632683 848.162354,91.634491 852.165894,93.672394 
	C853.923035,94.566826 855.412598,95.986694 857.062073,97.534706 
	C855.429932,97.280762 853.652344,96.855789 852.105103,96.009651 
	C833.538208,85.855728 813.629822,79.958374 792.365479,76.995064 
z"/>
<path fill="#E3EDF8" opacity="1.000000" stroke="none" 
	d="
M920.407776,851.972534 
	C920.190735,851.071533 920.033386,849.897949 920.455627,848.995544 
	C927.712891,833.483948 932.606262,817.266785 935.505249,800.153748 
	C935.789368,810.495483 933.809204,820.580933 929.459961,830.241394 
	C927.836670,833.846863 927.215759,837.892578 925.745300,841.581116 
	C924.341614,845.101990 922.427185,848.419250 920.407776,851.972534 
z"/>
<path fill="#EAF1F8" opacity="1.000000" stroke="none" 
	d="
M90.028519,808.920471 
	C91.804321,814.602295 93.225349,820.895203 95.436996,826.896790 
	C98.882103,836.245789 102.864059,845.396973 106.249725,854.857544 
	C103.927292,851.817566 101.368134,848.764282 100.135391,845.246216 
	C96.664803,835.341431 93.683174,825.262573 90.651253,815.209290 
	C90.098724,813.377197 90.218651,811.342285 90.028519,808.920471 
z"/>
<path fill="#E3EDF8" opacity="1.000000" stroke="none" 
	d="
M928.217712,187.370544 
	C928.176575,186.990784 928.650146,186.963058 928.887329,186.959671 
	C929.893433,188.245987 931.117188,189.456039 931.359192,190.838013 
	C933.258484,201.683502 934.969788,212.561890 936.731567,223.792999 
	C936.196045,222.814606 935.473938,221.515656 935.170959,220.125351 
	C932.821289,209.343597 930.552551,198.544235 928.217712,187.370544 
z"/>
<path fill="#EAF1F8" opacity="1.000000" stroke="none" 
	d="
M204.523865,81.974976 
	C205.177277,81.985237 205.417969,82.011871 206.017273,82.096786 
	C193.720078,87.623787 181.064285,93.092499 168.155609,98.227989 
	C169.807861,96.531845 171.537445,94.736786 173.647949,93.879448 
	C183.745743,89.777451 193.946777,85.929558 204.523865,81.974976 
z"/>
<path fill="#EAF1F8" opacity="1.000000" stroke="none" 
	d="
M245.530029,942.237854 
	C245.971649,942.302856 245.784485,942.511108 245.772293,942.650879 
	C233.385010,944.005493 221.403915,941.377197 209.416000,938.961853 
	C207.602310,938.596436 205.935272,937.503296 204.035278,936.398499 
	C205.148331,936.106995 206.445511,936.042358 207.701736,936.239136 
	C220.167847,938.192200 232.627167,940.188660 245.530029,942.237854 
z"/>
<path fill="#EAF1F8" opacity="1.000000" stroke="none" 
	d="
M142.516937,115.954132 
	C142.603073,116.733650 142.566757,117.737999 142.049896,118.301857 
	C135.561996,125.379684 129.004623,132.393829 122.175339,139.171265 
	C124.695961,135.003906 127.205956,130.821579 130.396164,127.246201 
	C134.002441,123.204506 138.219650,119.707909 142.516937,115.954132 
z"/>
<path fill="#E3EDF8" opacity="1.000000" stroke="none" 
	d="
M779.628418,942.856201 
	C779.182556,942.792969 779.251343,942.527710 779.202271,942.399780 
	C791.498779,940.501099 803.844421,938.730286 816.603638,937.040405 
	C813.245361,938.419983 809.558350,940.388062 805.684021,940.879822 
	C797.197815,941.956848 788.616638,942.285339 779.628418,942.856201 
z"/>
<path fill="#E3EDF8" opacity="1.000000" stroke="none" 
	d="
M98.976807,180.994019 
	C96.207924,190.954437 93.439049,200.914856 90.379463,211.166016 
	C90.380363,200.933182 92.542351,190.897278 98.207977,181.339417 
	C98.563919,180.996765 98.976799,180.994019 98.976807,180.994019 
z"/>
<path fill="#ECF2F9" opacity="1.000000" stroke="none" 
	d="
M879.033020,112.480850 
	C878.211670,112.733406 877.189087,112.886398 876.566040,112.458153 
	C869.872009,107.856995 863.241089,103.164101 856.835205,98.187386 
	C860.083740,99.246620 863.345398,100.238541 866.038696,102.067505 
	C870.555481,105.134804 874.710205,108.735291 879.033020,112.480850 
z"/>
<path fill="#ECF2F9" opacity="1.000000" stroke="none" 
	d="
M897.061646,130.543884 
	C896.489258,130.765961 895.672546,130.838058 895.301453,130.465897 
	C890.307068,125.457092 885.374878,120.386314 880.773804,115.124329 
	C886.421814,120.007599 891.723145,125.097466 897.061646,130.543884 
z"/>
<path fill="#E3EDF8" opacity="1.000000" stroke="none" 
	d="
M186.001465,929.355042 
	C191.947708,931.138428 198.018417,933.266907 204.038483,935.774292 
	C198.033890,934.002136 192.079910,931.851135 186.001465,929.355042 
z"/>
<path fill="#E3EDF8" opacity="1.000000" stroke="none" 
	d="
M820.395203,936.043640 
	C826.119385,933.627197 832.258240,931.165405 838.763062,928.874817 
	C834.042969,934.052002 827.184631,934.388062 820.395203,936.043640 
z"/>
<path fill="#EAF1F8" opacity="1.000000" stroke="none" 
	d="
M99.178482,180.707657 
	C98.976799,180.994019 98.563919,180.996765 98.357483,180.999207 
	C100.516243,175.393051 102.881439,169.784470 105.573685,164.036667 
	C103.727219,169.405396 101.553696,174.913345 99.178482,180.707657 
z"/>
<path fill="#EAF1F8" opacity="1.000000" stroke="none" 
	d="
M113.915237,868.413330 
	C117.125763,872.283630 120.390518,876.518433 123.258163,880.908508 
	C119.897186,876.968506 116.933327,872.873230 113.915237,868.413330 
z"/>
<path fill="#EAF1F8" opacity="1.000000" stroke="none" 
	d="
M167.535385,97.935562 
	C166.329147,99.276886 164.837570,100.766220 163.162964,102.008896 
	C160.966995,103.638474 158.626663,105.073486 156.133209,106.237427 
	C159.668213,103.246407 163.418411,100.610130 167.535385,97.935562 
z"/>
<path fill="#EAF1F8" opacity="1.000000" stroke="none" 
	d="
M155.531906,105.940079 
	C152.761826,108.729309 149.631378,111.552223 146.189438,114.152756 
	C148.975815,111.278175 152.073685,108.625969 155.531906,105.940079 
z"/>
<path fill="#EAF1F8" opacity="1.000000" stroke="none" 
	d="
M113.563461,150.046722 
	C111.753700,154.084869 109.623428,158.255264 107.187561,162.172821 
	C109.002296,158.006317 111.122620,154.092636 113.563461,150.046722 
z"/>
<path fill="#EAF1F8" opacity="1.000000" stroke="none" 
	d="
M105.932846,855.464355 
	C108.477356,858.964417 111.063065,862.831970 113.259865,866.886719 
	C110.571983,863.326599 108.273010,859.579163 105.932846,855.464355 
z"/>
<path fill="#E3EDF8" opacity="1.000000" stroke="none" 
	d="
M914.436340,862.960205 
	C915.891418,859.304504 917.669067,855.517944 919.792175,851.892578 
	C918.344727,855.645569 916.551819,859.237488 914.436340,862.960205 
z"/>
<path fill="#E3EDF8" opacity="1.000000" stroke="none" 
	d="
M170.010300,921.397705 
	C173.665268,922.859680 177.451736,924.648987 181.096344,926.789062 
	C177.350235,925.334839 173.746017,923.529907 170.010300,921.397705 
z"/>
<path fill="#EAF1F8" opacity="1.000000" stroke="none" 
	d="
M129.943558,889.466125 
	C132.695267,891.568542 135.476013,894.018127 138.104584,896.803101 
	C135.292480,894.696777 132.632538,892.255005 129.943558,889.466125 
z"/>
<path fill="#EAF1F8" opacity="1.000000" stroke="none" 
	d="
M121.551971,138.932526 
	C120.066513,141.776596 118.221222,144.661072 116.142174,147.216690 
	C117.669655,144.249542 119.430893,141.611221 121.551971,138.932526 
z"/>
<path fill="#E3EDF8" opacity="1.000000" stroke="none" 
	d="
M907.446655,873.949646 
	C908.564819,871.316162 910.002808,868.554993 911.791504,865.916626 
	C910.683594,868.633606 909.224976,871.227722 907.446655,873.949646 
z"/>
<path fill="#E3EDF8" opacity="1.000000" stroke="none" 
	d="
M898.401367,885.089478 
	C899.573425,882.904968 901.106262,880.670105 902.861938,878.776123 
	C901.643860,881.091064 900.203003,883.065063 898.401367,885.089478 
z"/>
<path fill="#EAF1F8" opacity="1.000000" stroke="none" 
	d="
M137.913071,897.393188 
	C139.779449,898.598145 141.700455,900.153320 143.243622,901.890137 
	C141.233109,900.628967 139.600403,899.186157 137.913071,897.393188 
z"/>
<path fill="#E3EDF8" opacity="1.000000" stroke="none" 
	d="
M157.043152,913.439575 
	C159.118637,914.268127 161.319366,915.413391 163.207764,916.829590 
	C160.986435,915.985779 159.077408,914.871033 157.043152,913.439575 
z"/>
<path fill="#EAF1F8" opacity="1.000000" stroke="none" 
	d="
M122.939285,881.452148 
	C124.507339,882.665466 126.107422,884.215515 127.279999,885.911499 
	C125.558762,884.634583 124.265045,883.211731 122.939285,881.452148 
z"/>
<path fill="#E3EDF8" opacity="1.000000" stroke="none" 
	d="
M895.444580,888.950562 
	C895.532593,888.055542 895.929871,887.043396 896.742859,886.008667 
	C896.690308,886.935303 896.222046,887.884399 895.444580,888.950562 
z"/>
<path fill="#EAF1F8" opacity="1.000000" stroke="none" 
	d="
M115.581589,147.027649 
	C115.473076,148.052124 115.059540,149.196762 114.252968,150.141663 
	C114.332146,149.010544 114.804352,148.079178 115.581589,147.027649 
z"/>
<path fill="#E3EDF8" opacity="1.000000" stroke="none" 
	d="
M842.536621,927.647705 
	C843.048218,927.297974 843.773438,926.796082 844.679810,926.300171 
	C844.157471,926.702637 843.453918,927.099060 842.536621,927.647705 
z"/>
<path fill="#EAF1F8" opacity="1.000000" stroke="none" 
	d="
M145.656219,113.905396 
	C145.073090,114.800552 144.164734,115.758736 143.097809,116.287422 
	C143.736496,115.228096 144.533752,114.598267 145.656219,113.905396 
z"/>
<path fill="#E3EDF8" opacity="1.000000" stroke="none" 
	d="
M904.449768,877.946289 
	C904.527771,877.000793 904.912048,875.940674 905.726685,874.950134 
	C905.690002,875.956970 905.223022,876.894287 904.449768,877.946289 
z"/>
<path fill="#E3EDF8" opacity="1.000000" stroke="none" 
	d="
M163.011841,917.406616 
	C164.110413,917.549500 165.326614,917.997925 166.222595,918.779053 
	C164.978058,918.645264 164.053772,918.178711 163.011841,917.406616 
z"/>
<path fill="#E3EDF8" opacity="1.000000" stroke="none" 
	d="
M881.314697,902.062866 
	C881.910034,901.174316 882.836914,900.253479 883.910645,899.739685 
	C883.253723,900.774658 882.450012,901.402649 881.314697,902.062866 
z"/>
<path fill="#E3EDF8" opacity="1.000000" stroke="none" 
	d="
M891.407959,893.088257 
	C891.505310,892.317078 891.957947,891.495911 892.772034,890.867371 
	C892.676758,891.719482 892.219971,892.378906 891.407959,893.088257 
z"/>
<path fill="#E3EDF8" opacity="1.000000" stroke="none" 
	d="
M879.588867,903.626709 
	C879.910400,903.329956 880.435059,902.867981 880.994568,902.114502 
	C880.616943,902.369141 880.204468,902.915344 879.588867,903.626709 
z"/>
<path fill="#E3EDF8" opacity="1.000000" stroke="none" 
	d="
M183.032867,928.404846 
	C183.846848,928.182190 184.811157,928.294800 185.917908,928.780640 
	C185.101303,929.015930 184.142258,928.877991 183.032867,928.404846 
z"/>
<path fill="#E3EDF8" opacity="1.000000" stroke="none" 
	d="
M180.993317,927.369995 
	C181.595459,927.155945 182.318558,927.248718 183.019485,927.750427 
	C182.369614,927.998535 181.741943,927.837708 180.993317,927.369995 
z"/>
<path fill="#E3EDF8" opacity="1.000000" stroke="none" 
	d="
M839.326111,929.087036 
	C839.489014,928.695679 839.993103,928.228699 840.881714,927.869446 
	C840.733337,928.321899 840.200317,928.666626 839.326111,929.087036 
z"/>
<path fill="#EAF1F8" opacity="1.000000" stroke="none" 
	d="
M144.052078,903.437744 
	C144.570251,903.160889 145.207291,903.179565 145.933441,903.646240 
	C145.405334,903.973938 144.788147,903.853577 144.052078,903.437744 
z"/>
<path fill="#E3EDF8" opacity="1.000000" stroke="none" 
	d="
M912.366333,866.008057 
	C912.168091,865.446167 912.279846,864.760681 912.775879,864.025513 
	C912.998901,864.612061 912.837708,865.248352 912.366333,866.008057 
z"/>
<path fill="#EAF1F8" opacity="1.000000" stroke="none" 
	d="
M106.616882,162.005966 
	C106.847382,162.626266 106.777962,163.370346 106.272148,164.049164 
	C105.996162,163.365845 106.156570,162.747803 106.616882,162.005966 
z"/>
<path fill="#E3EDF8" opacity="1.000000" stroke="none" 
	d="
M166.031311,919.420166 
	C166.607880,919.164368 167.303253,919.207642 168.000641,919.708801 
	C167.385132,920.017578 166.767624,919.868347 166.031311,919.420166 
z"/>
<path fill="#E3EDF8" opacity="1.000000" stroke="none" 
	d="
M167.994415,920.372559 
	C168.597931,920.157776 169.324005,920.247925 170.021942,920.749756 
	C169.368179,921.000122 168.742584,920.838867 167.994415,920.372559 
z"/>
<path fill="#E3EDF8" opacity="1.000000" stroke="none" 
	d="
M819.326599,936.603638 
	C819.502686,936.564209 819.888794,936.524109 820.094238,936.186279 
	C819.866821,936.168091 819.741211,936.406189 819.326599,936.603638 
z"/>
<path fill="#E3EDF8" opacity="1.000000" stroke="none" 
	d="
M90.130707,212.627045 
	C89.848213,212.984421 89.653374,212.975555 89.166519,212.950928 
	C89.114700,212.602478 89.354881,212.269791 89.840103,211.728333 
	C90.129547,211.766678 90.173950,212.013763 90.130707,212.627045 
z"/>
<path fill="#E3EDF8" opacity="1.000000" stroke="none" 
	d="
M894.308228,890.061035 
	C894.145447,889.639709 894.244263,889.132080 894.740601,888.846191 
	C894.948669,889.370239 894.759216,889.672546 894.308228,890.061035 
z"/>
<path fill="#ECF2F9" opacity="1.000000" stroke="none" 
	d="
M881.061523,114.694443 
	C880.599365,114.856148 880.046936,114.761490 879.787720,114.267494 
	C880.377686,114.058128 880.674500,114.248108 881.061523,114.694443 
z"/>
<path fill="#ECF2F9" opacity="1.000000" stroke="none" 
	d="
M880.051086,113.675522 
	C879.610413,113.864120 879.079651,113.798111 878.809448,113.295532 
	C879.367004,113.046280 879.664062,113.233597 880.051086,113.675522 
z"/>
<path fill="#E3EDF8" opacity="1.000000" stroke="none" 
	d="
M913.276855,864.064575 
	C913.142334,863.649109 913.278198,863.154968 913.775269,862.863464 
	C913.940125,863.372742 913.743652,863.679321 913.276855,864.064575 
z"/>
<path fill="#EAF1F8" opacity="1.000000" stroke="none" 
	d="
M112.956467,867.332703 
	C113.293129,867.145264 113.722549,867.220093 114.065765,867.726440 
	C113.669456,867.970337 113.359352,867.782654 112.956467,867.332703 
z"/>
<path fill="#E3EDF8" opacity="1.000000" stroke="none" 
	d="
M906.295044,875.066040 
	C906.145996,874.650574 906.261719,874.148987 906.757812,873.856934 
	C906.945374,874.370972 906.752563,874.675476 906.295044,875.066040 
z"/>
<path fill="#E3EDF8" opacity="1.000000" stroke="none" 
	d="
M903.307007,879.062866 
	C903.146912,878.610229 903.245728,878.072021 903.737366,877.807739 
	C903.942139,878.380310 903.754028,878.678833 903.307007,879.062866 
z"/>
<path fill="#E3EDF8" opacity="1.000000" stroke="none" 
	d="
M897.284058,886.063843 
	C897.146912,885.720947 897.285889,885.292297 897.788208,884.943481 
	C897.954407,885.341553 897.757263,885.659790 897.284058,886.063843 
z"/>
<path fill="#EAF1F8" opacity="1.000000" stroke="none" 
	d="
M126.955719,886.336182 
	C127.375023,886.132324 127.883163,886.182739 128.164795,886.690063 
	C127.640396,886.961487 127.342476,886.776001 126.955719,886.336182 
z"/>
<path fill="#EAF1F8" opacity="1.000000" stroke="none" 
	d="
M127.950699,887.328369 
	C128.354218,887.138794 128.848160,887.206116 129.142670,887.711426 
	C128.642548,887.961304 128.341827,887.773254 127.950699,887.328369 
z"/>
<path fill="#EAF1F8" opacity="1.000000" stroke="none" 
	d="
M128.946747,888.321899 
	C129.341721,888.142273 129.828354,888.221436 130.131088,888.725098 
	C129.644257,888.960022 129.341324,888.770325 128.946747,888.321899 
z"/>
<path fill="#E3EDF8" opacity="1.000000" stroke="none" 
	d="
M155.904358,912.238525 
	C156.327377,912.102966 156.841049,912.243652 157.143768,912.760864 
	C156.620209,912.929810 156.307617,912.722290 155.904358,912.238525 
z"/>
<path fill="#E3EDF8" opacity="1.000000" stroke="none" 
	d="
M893.305176,891.061157 
	C893.146179,890.672302 893.252502,890.195984 893.751709,889.885498 
	C893.953186,890.358887 893.761841,890.666321 893.305176,891.061157 
z"/>
<path fill="#E3EDF8" opacity="1.000000" stroke="none" 
	d="
M890.310913,894.058350 
	C890.148682,893.697083 890.253113,893.246948 890.753662,892.916565 
	C890.959106,893.347351 890.768311,893.658386 890.310913,894.058350 
z"/>
<path fill="#E3EDF8" opacity="1.000000" stroke="none" 
	d="
M889.319153,895.055542 
	C889.147583,894.684937 889.239685,894.225525 889.740356,893.903809 
	C889.960144,894.349976 889.771484,894.658325 889.319153,895.055542 
z"/>
<path fill="#E3EDF8" opacity="1.000000" stroke="none" 
	d="
M888.318909,896.056213 
	C888.145935,895.665283 888.234680,895.186340 888.734741,894.880249 
	C888.957581,895.358154 888.769104,895.663208 888.318909,896.056213 
z"/>
<path fill="#E3EDF8" opacity="1.000000" stroke="none" 
	d="
M887.317688,897.056946 
	C887.145569,896.659607 887.234985,896.174500 887.734497,895.872803 
	C887.956116,896.360535 887.767639,896.664856 887.317688,897.056946 
z"/>
<path fill="#E3EDF8" opacity="1.000000" stroke="none" 
	d="
M886.317688,898.056946 
	C886.145630,897.659668 886.235046,897.174622 886.734558,896.872925 
	C886.956116,897.360474 886.767639,897.664856 886.317688,898.056946 
z"/>
<path fill="#E3EDF8" opacity="1.000000" stroke="none" 
	d="
M885.321838,899.054993 
	C885.144958,898.659546 885.228821,898.176392 885.729126,897.874207 
	C885.957825,898.359131 885.770264,898.663208 885.321838,899.054993 
z"/>
<path fill="#E3EDF8" opacity="1.000000" stroke="none" 
	d="
M884.336792,900.046631 
	C884.139771,899.649902 884.200439,899.166626 884.703979,898.869019 
	C884.962769,899.356506 884.778625,899.658264 884.336792,900.046631 
z"/>
<path fill="#EAF1F8" opacity="1.000000" stroke="none" 
	d="
M142.942978,902.317505 
	C143.407700,902.141907 143.961533,902.220642 144.216461,902.716553 
	C143.622391,902.946350 143.327255,902.759033 142.942978,902.317505 
z"/>
<path fill="#EAF1F8" opacity="1.000000" stroke="none" 
	d="
M146.136139,904.074951 
	C146.032959,904.109009 145.894699,904.333008 145.851700,904.573914 
	C145.833954,904.673279 146.020935,904.809082 146.444366,904.799316 
	C146.454224,904.708679 146.242737,904.575806 146.136139,904.074951 
z"/>
<path fill="#FDFDFE" opacity="1.000000" stroke="none" 
	d="
M253.625595,523.684753 
	C259.869171,524.332947 266.105347,525.438660 272.357788,525.540100 
	C288.658875,525.804688 304.967072,525.629211 321.550171,525.629211 
	C321.984558,530.412354 323.067261,534.472656 318.457855,538.278015 
	C315.922272,540.371277 314.331421,544.893372 314.202942,548.389832 
	C313.714081,561.692627 313.769592,575.030151 314.157776,588.339111 
	C314.245850,591.358582 315.823151,594.952942 317.916199,597.125244 
	C320.100464,599.392273 320.948914,601.362427 320.836578,604.328308 
	C320.647644,609.316345 320.342194,614.370911 320.943329,619.292725 
	C321.338623,622.529175 323.255798,625.575623 324.460022,628.719177 
	C325.070129,630.311829 326.065430,631.920105 326.104797,633.540283 
	C326.282532,640.862183 326.526093,648.210388 326.112549,655.513306 
	C325.048065,674.309692 341.870392,685.418396 358.271271,683.848083 
	C375.716736,682.177795 385.570068,667.582336 384.055756,654.524841 
	C383.484039,649.595093 383.919769,644.544922 383.950073,639.549988 
	C383.979462,634.700256 382.936462,629.702698 387.754669,625.936218 
	C389.087799,624.894043 389.284973,621.976868 389.400116,619.886719 
	C389.637909,615.571167 389.530945,611.232178 389.451019,606.904846 
	C389.375427,602.812378 388.910553,598.992126 393.253815,596.038696 
	C395.087738,594.791687 395.948181,591.058167 396.003845,588.428528 
	C396.285614,575.113892 396.367493,561.785034 396.015381,548.474487 
	C395.933990,545.399414 394.718353,541.386719 392.548462,539.539856 
	C388.286285,535.912170 387.630920,531.770996 388.490936,526.270630 
	C425.182251,525.647278 461.464539,525.596985 497.746857,525.612915 
	C544.849670,525.633667 591.952515,525.707092 639.055298,525.757874 
	C639.338379,530.874084 639.479065,535.584839 634.623047,539.462585 
	C632.448364,541.199158 631.317261,545.327087 631.234436,548.410645 
	C630.881226,561.567017 630.789124,574.750854 631.314270,587.896301 
	C631.450378,591.303467 634.164856,594.609009 635.701416,597.958313 
	C636.378601,599.434204 637.588623,600.877014 637.663147,602.379211 
	C637.910522,607.366333 637.865173,612.376892 637.715759,617.372070 
	C637.580444,621.897217 638.384277,625.899841 641.890747,629.181946 
	C642.776794,630.011292 643.078857,631.808289 643.094727,633.167053 
	C643.186157,640.998779 643.108826,648.832397 643.092590,656.665405 
	C643.059998,672.398987 655.317566,684.066528 671.901123,684.090271 
	C688.223450,684.113525 700.602844,672.639893 700.777649,657.205444 
	C700.866333,649.373840 700.683289,641.538940 700.787720,633.707764 
	C700.807983,632.186401 701.110168,630.118591 702.106873,629.259644 
	C705.668640,626.190247 706.409058,622.347168 706.293152,618.012146 
	C706.204163,614.681885 706.286804,611.346375 706.321655,608.013550 
	C706.368896,603.498169 705.604370,598.984741 710.492371,595.731323 
	C712.224304,594.578552 713.014282,590.991150 713.059937,588.493774 
	C713.306396,574.998840 713.433228,561.489258 713.005920,548.003601 
	C712.904846,544.813049 711.377197,540.479614 709.000610,538.793884 
	C703.885315,535.165527 705.001709,530.771179 705.168457,525.612305 
	C713.746521,525.612305 722.026123,525.713562 730.302307,525.588745 
	C742.955933,525.398010 755.702881,525.928772 768.237061,524.563965 
	C786.776428,522.545227 803.184204,515.110229 816.748779,500.304718 
	C816.964844,502.434021 817.216553,503.762939 817.217834,505.092163 
	C817.280029,569.420715 817.427795,633.749451 817.306702,698.077698 
	C817.263000,721.320984 800.057007,737.757812 776.821045,737.754456 
	C608.494629,737.730469 440.168243,737.780029 271.841858,737.692810 
	C261.054413,737.687195 250.028793,737.972168 239.533051,735.948547 
	C221.194031,732.412537 209.591446,717.810730 209.562027,699.243042 
	C209.458740,634.081360 209.703964,568.919189 209.836029,503.757263 
	C209.837677,502.945953 210.091629,502.135132 210.801514,501.441467 
	C222.680878,514.238464 237.266190,520.655457 253.625595,523.684753 
z"/>
<path fill="#FDFDFE" opacity="1.000000" stroke="none" 
	d="
M217.706985,491.735748 
	C206.624420,479.759369 201.895599,465.625214 202.064743,449.317810 
	C202.401810,416.823242 202.151947,384.322876 202.216080,351.825043 
	C202.249237,335.020782 212.154846,325.167511 229.032028,325.159515 
	C274.195221,325.138092 319.358398,325.198120 364.521576,325.201843 
	C498.845734,325.212921 633.169922,325.212128 767.494080,325.217468 
	C777.826538,325.217865 788.159485,325.162872 798.491272,325.251801 
	C814.715393,325.391449 824.448547,334.995728 824.493652,351.084442 
	C824.590393,385.580841 824.874634,420.081085 824.484924,454.573029 
	C824.216125,478.364380 811.411865,494.438293 790.746521,504.780914 
	C781.407898,509.454742 771.427734,512.228516 760.938293,512.327820 
	C742.473572,512.502686 724.005859,512.376709 705.185913,512.376709 
	C705.086548,511.041229 704.914001,509.777679 704.910522,508.513702 
	C704.873169,494.847900 704.906921,481.181763 704.827454,467.516235 
	C704.780945,459.528503 701.196167,455.966583 693.147217,455.926544 
	C679.148438,455.856903 665.148926,455.861450 651.150024,455.905609 
	C642.931641,455.931519 639.201050,459.676178 639.192200,467.769623 
	C639.175964,482.597687 639.187622,497.425751 639.187622,512.661011 
	C555.588013,512.661011 472.224365,512.661011 388.269379,512.661011 
	C388.269379,509.048065 388.272491,505.594452 388.268829,502.140839 
	C388.256195,490.308258 388.297241,478.475281 388.204987,466.643311 
	C388.153839,460.083344 384.591736,456.025909 378.268738,455.948273 
	C362.938812,455.760071 347.602722,455.742737 332.273773,455.970459 
	C325.758911,456.067230 322.130035,460.341400 322.109894,467.078979 
	C322.065155,482.057648 322.095947,497.036499 322.095947,512.785889 
	C315.821198,512.785889 309.869232,512.785889 302.998901,512.777222 
	C292.938599,512.707092 283.794373,512.484741 274.655212,512.616333 
	C252.976059,512.928650 233.717072,506.804657 217.706985,491.735748 
z"/>
<path fill="#FCFDFD" opacity="1.000000" stroke="none" 
	d="
M647.114014,311.992126 
	C635.978149,290.062958 617.237366,277.298523 595.388672,269.929871 
	C541.646729,251.804886 487.363098,251.910645 433.386322,269.357788 
	C418.079529,274.305481 404.018829,282.176697 392.927673,294.248077 
	C388.799805,298.740723 385.777008,304.241882 381.703918,308.794312 
	C379.317261,311.461884 375.987518,314.742157 372.849396,315.008759 
	C363.291565,315.820709 353.620758,315.303162 343.336609,315.303162 
	C344.470917,304.448273 348.103668,295.372955 353.390503,286.838135 
	C367.750458,263.655945 389.440430,249.860123 414.004547,240.001572 
	C438.504730,230.168671 464.243683,225.753601 490.459564,223.885925 
	C530.598389,221.026352 570.095093,224.377045 608.187073,237.962158 
	C635.652161,247.757294 659.158875,263.307037 674.664673,288.906250 
	C679.425964,296.766907 682.821594,305.229553 683.832214,315.567688 
	C671.455383,313.701172 659.060242,318.483154 647.114014,311.992126 
z"/>
<path fill="#FCFDFD" opacity="1.000000" stroke="none" 
	d="
M378.677246,528.822815 
	C378.613800,530.771301 378.547668,532.239502 378.464844,534.078369 
	C362.999084,534.078369 347.765778,534.078369 332.071045,534.078369 
	C332.071045,511.186218 332.071045,488.367767 332.071045,465.216675 
	C347.507812,465.216675 362.748932,465.216675 378.674530,465.216675 
	C378.674530,486.239075 378.674530,507.290802 378.677246,528.822815 
z"/>
<path fill="#FBFCFD" opacity="1.000000" stroke="none" 
	d="
M695.586792,483.001282 
	C695.584839,500.273163 695.584839,517.045471 695.584839,534.063477 
	C679.798767,534.063477 664.701721,534.063477 649.247803,534.063477 
	C649.247803,511.131592 649.247803,488.404510 649.247803,465.270569 
	C664.436768,465.270569 679.668335,465.270569 695.588806,465.270569 
	C695.588806,470.974640 695.588806,476.738159 695.586792,483.001282 
z"/>
<path fill="#2068BD" opacity="1.000000" stroke="none" 
	d="
M649.014404,601.072144 
	C648.340210,598.068726 647.666016,595.065308 647.412109,591.570435 
	C650.800598,591.439758 650.899292,589.580750 650.884033,587.367554 
	C650.817505,577.743774 650.933594,568.117981 650.794006,558.495667 
	C650.732849,554.280029 652.665100,552.376953 656.706604,552.292358 
	C658.033386,552.264587 659.367310,552.376648 660.687744,552.282043 
	C664.652161,551.998047 666.606445,553.679016 666.462341,557.767090 
	C666.380737,560.083984 666.451233,562.419250 666.646179,564.729919 
	C666.924011,568.025146 668.742737,570.006287 672.144958,569.829651 
	C675.361267,569.662720 677.433777,567.964905 677.464355,564.492981 
	C677.484802,562.171204 677.146851,559.822754 677.403992,557.535095 
	C677.572510,556.035645 678.133911,554.181091 679.193237,553.263306 
	C681.473022,551.288147 690.479919,552.677002 692.904968,555.020447 
	C692.600037,557.615662 692.064941,560.207947 692.032166,562.806641 
	C691.920959,571.603943 691.902649,580.404663 692.031433,589.201477 
	C692.077942,592.379028 691.268860,594.398193 688.031311,595.720825 
	C686.097412,596.510986 684.751038,598.738892 682.609253,600.756897 
	C677.059570,601.148682 672.041016,601.104004 666.800903,600.866211 
	C665.712280,600.802246 664.845398,600.931274 663.524292,601.167847 
	C658.384888,601.207581 653.699646,601.139893 649.014404,601.072144 
z"/>
<path fill="#F8FAFC" opacity="1.000000" stroke="none" 
	d="
M332.954224,591.888000 
	C331.624878,591.923218 330.283112,591.854797 328.968506,592.012756 
	C324.707367,592.524780 323.351288,590.171997 323.361816,586.446899 
	C323.396057,574.300476 323.374084,562.153137 323.528717,550.008118 
	C323.585724,545.532898 326.332489,543.022217 330.817627,543.012146 
	C347.123627,542.975525 363.429749,542.985107 379.735809,542.994812 
	C383.995209,542.997375 387.055145,545.648682 387.115997,549.984802 
	C387.288757,562.295898 387.310944,574.611206 387.197021,586.923096 
	C387.156860,591.267700 384.404724,592.447998 376.800690,591.553955 
	C376.800690,580.833191 376.693390,570.040588 376.861786,559.252197 
	C376.916992,555.713745 375.542297,553.756714 371.906769,553.324219 
	C371.599457,553.663391 371.640045,553.855164 371.542847,553.508179 
	C370.973480,553.157288 370.501343,553.153381 369.589264,553.081055 
	C360.827667,552.961731 360.827667,552.961731 360.877808,560.402222 
	C360.920654,566.758789 359.242523,569.698364 355.471497,569.872253 
	C351.451233,570.057678 349.780609,567.296570 349.686829,560.311584 
	C349.584747,552.709961 349.584778,552.709961 341.432526,553.081360 
	C333.855530,552.929810 333.847626,552.929871 333.881317,560.281677 
	C333.926697,570.184143 333.985718,580.086609 333.877106,590.214111 
	C333.461609,590.922119 333.207916,591.405029 332.954224,591.888000 
z"/>
<path fill="#F7F9FC" opacity="1.000000" stroke="none" 
	d="
M693.166748,555.344482 
	C690.479919,552.677002 681.473022,551.288147 679.193237,553.263306 
	C678.133911,554.181091 677.572510,556.035645 677.403992,557.535095 
	C677.146851,559.822754 677.484802,562.171204 677.464355,564.492981 
	C677.433777,567.964905 675.361267,569.662720 672.144958,569.829651 
	C668.742737,570.006287 666.924011,568.025146 666.646179,564.729919 
	C666.451233,562.419250 666.380737,560.083984 666.462341,557.767090 
	C666.606445,553.679016 664.652161,551.998047 660.687744,552.282043 
	C659.367310,552.376648 658.033386,552.264587 656.706604,552.292358 
	C652.665100,552.376953 650.732849,554.280029 650.794006,558.495667 
	C650.933594,568.117981 650.817505,577.743774 650.884033,587.367554 
	C650.899292,589.580750 650.800598,591.439758 647.413635,591.169495 
	C640.550110,591.170349 640.250977,590.885864 640.244324,584.508545 
	C640.233093,573.701721 640.193848,562.894653 640.260376,552.088257 
	C640.302429,545.246826 642.738953,542.979736 649.693787,542.978943 
	C664.823059,542.977112 679.952393,542.985901 695.081604,542.952698 
	C701.610535,542.938354 703.930176,545.199951 703.954895,551.951965 
	C703.994385,562.758484 703.975525,573.565369 703.970520,584.372070 
	C703.967468,591.032715 703.510986,591.461487 696.857239,591.145264 
	C696.044067,591.106628 695.233154,591.020996 693.428467,590.879028 
	C693.428467,579.103760 693.428467,567.386169 693.166748,555.344482 
z"/>
<path fill="#FAFBFD" opacity="1.000000" stroke="none" 
	d="
M357.997314,630.964294 
	C363.605194,630.964844 368.713837,630.964844 374.405945,630.964844 
	C374.405945,640.468079 374.887238,649.436340 374.278198,658.330017 
	C373.591278,668.361267 364.763580,675.364624 354.663910,674.865051 
	C343.687531,674.322144 335.528656,666.683716 335.362366,656.540833 
	C335.237122,648.901794 335.397766,641.257874 335.451355,633.616272 
	C335.455902,632.970154 335.613403,632.325012 335.795654,630.963745 
	C343.047791,630.963745 350.272949,630.963745 357.997314,630.964294 
z"/>
<path fill="#FBFCFD" opacity="1.000000" stroke="none" 
	d="
M680.031372,673.288086 
	C673.913635,675.804626 668.270569,675.184387 662.779602,672.625000 
	C656.744995,669.812134 652.844238,665.218689 652.654602,658.391907 
	C652.406067,649.443359 652.593628,640.482788 652.593628,631.229370 
	C665.486206,631.229370 678.011169,631.229370 690.917908,631.229370 
	C690.917908,641.017395 691.353821,650.620117 690.762878,660.159302 
	C690.376343,666.399353 686.175293,670.657166 680.031372,673.288086 
z"/>
<path fill="#1E67BD" opacity="1.000000" stroke="none" 
	d="
M341.797974,553.145386 
	C349.584778,552.709961 349.584747,552.709961 349.686829,560.311584 
	C349.780609,567.296570 351.451233,570.057678 355.471497,569.872253 
	C359.242523,569.698364 360.920654,566.758789 360.877808,560.402222 
	C360.827667,552.961731 360.827667,552.961731 369.842468,553.230225 
	C370.903748,553.583496 371.271881,553.719299 371.640045,553.855164 
	C371.640045,553.855164 371.599457,553.663391 371.682190,553.615356 
	C370.739563,561.543518 370.129547,569.601929 368.569702,577.472107 
	C367.071503,585.031311 368.034027,588.402039 374.900421,591.000244 
	C373.249146,594.132874 371.648865,597.168762 369.564117,600.656128 
	C357.722656,601.073242 346.365662,601.038879 335.008698,601.004456 
	C334.425690,598.200745 333.842682,595.397095 333.106934,592.240723 
	C333.207916,591.405029 333.461609,590.922119 334.100525,589.918213 
	C336.219055,583.857300 336.397949,577.685852 341.493317,573.528320 
	C342.423706,572.769165 342.684509,570.745178 342.645752,569.321533 
	C342.498718,563.925781 342.101562,558.536865 341.797974,553.145386 
z"/>
<path fill="#2268BC" opacity="1.000000" stroke="none" 
	d="
M217.273575,491.786499 
	C233.717072,506.804657 252.976059,512.928650 274.655212,512.616333 
	C283.794373,512.484741 292.938599,512.707092 302.538818,512.873047 
	C302.736145,518.844055 297.595551,523.915649 291.766632,523.976074 
	C286.962372,524.025879 282.156097,523.921631 277.352844,524.006409 
	C272.698334,524.088501 268.326080,524.030823 264.267120,520.806946 
	C260.521332,517.831909 256.795746,519.208862 253.824783,523.339844 
	C237.266190,520.655457 222.680878,514.238464 211.212112,501.269104 
	C211.071564,496.723419 210.250900,491.933380 217.273575,491.786499 
z"/>
<path fill="#F7F9FC" opacity="1.000000" stroke="none" 
	d="
M648.647400,601.238770 
	C653.699646,601.139893 658.384888,601.207581 663.899170,601.262329 
	C665.492920,601.186035 666.257751,601.122742 667.022522,601.059326 
	C672.041016,601.104004 677.059570,601.148682 682.535400,601.096802 
	C687.439270,601.000244 691.885864,601.000244 697.030945,601.000244 
	C697.030945,607.271790 697.270447,612.867981 696.849976,618.414124 
	C696.753845,619.682312 694.398254,621.776855 693.054810,621.798828 
	C679.104309,622.027283 665.147522,621.962708 651.194641,621.794983 
	C649.966187,621.780212 647.703125,620.468994 647.698425,619.748291 
	C647.658569,613.635498 648.031372,607.520020 648.647400,601.238770 
z"/>
<path fill="#F8FAFC" opacity="1.000000" stroke="none" 
	d="
M334.602051,601.095581 
	C346.365662,601.038879 357.722656,601.073242 369.540283,601.015137 
	C373.126587,601.066589 376.252258,601.210510 380.121399,601.388733 
	C380.121399,607.194214 380.352020,612.809814 379.945709,618.378906 
	C379.853729,619.639465 377.566803,621.734375 376.259033,621.758545 
	C362.447083,622.014221 348.628845,621.922852 334.812317,621.939758 
	C331.492432,621.943787 329.954193,620.287781 329.991486,617.002625 
	C330.036865,613.007935 330.200745,609.002441 329.977722,605.020447 
	C329.793182,601.725342 331.424591,600.960449 334.602051,601.095581 
z"/>
<path fill="#0C52AB" opacity="1.000000" stroke="none" 
	d="
M638.838989,525.443359 
	C591.952515,525.707092 544.849670,525.633667 497.746857,525.612915 
	C461.464539,525.596985 425.182251,525.647278 388.454651,525.822876 
	C390.230560,525.320679 392.450836,524.093140 394.673065,524.089539 
	C459.950531,523.983826 525.228210,523.999634 590.505798,523.996582 
	C604.660400,523.995911 618.815247,523.955566 632.969299,524.048157 
	C634.856018,524.060486 636.738281,524.751953 638.838989,525.443359 
z"/>
<path fill="#0C52AB" opacity="1.000000" stroke="none" 
	d="
M561.580444,941.659058 
	C525.951538,941.895020 489.970795,941.927979 453.528198,941.916443 
	C454.509033,941.583313 455.951324,941.044922 457.394440,941.042725 
	C490.859802,940.991943 524.325256,940.994751 557.790710,941.015259 
	C558.936768,941.015991 560.082642,941.302673 561.580444,941.659058 
z"/>
<path fill="#0C52AB" opacity="1.000000" stroke="none" 
	d="
M338.588654,941.671997 
	C308.269287,941.891113 277.598907,941.904419 246.464355,941.849243 
	C247.289078,941.524536 248.577637,941.046387 249.866959,941.044373 
	C278.344727,940.998901 306.822632,941.001587 335.300476,941.022827 
	C336.279633,941.023560 337.258575,941.311829 338.588654,941.671997 
z"/>
<path fill="#0C52AB" opacity="1.000000" stroke="none" 
	d="
M753.571899,941.642212 
	C728.949951,941.869324 703.973877,941.899353 678.536255,941.885986 
	C679.352783,941.563354 680.630188,941.043274 681.908691,941.040710 
	C704.864807,940.994507 727.820923,941.006714 750.777100,941.032349 
	C751.590759,941.033203 752.404114,941.301514 753.571899,941.642212 
z"/>
<path fill="#0C52AB" opacity="1.000000" stroke="none" 
	d="
M450.585266,941.675049 
	C436.616699,941.917542 422.296844,941.955688 407.514221,941.946167 
	C407.989777,941.608582 408.929810,941.061157 409.866089,941.067444 
	C423.322357,941.158142 436.778137,941.323364 450.585266,941.675049 
z"/>
<path fill="#0C52AB" opacity="1.000000" stroke="none" 
	d="
M663.592773,941.676025 
	C654.955444,941.914551 645.968140,941.944519 636.517944,941.928955 
	C645.117676,941.744812 654.180237,941.606140 663.592773,941.676025 
z"/>
<path fill="#0C52AB" opacity="1.000000" stroke="none" 
	d="
M623.586243,941.658569 
	C615.284363,941.903564 606.630554,941.944519 597.513550,941.939148 
	C605.778381,941.746704 614.506287,941.600586 623.586243,941.658569 
z"/>
<path fill="#0C52AB" opacity="1.000000" stroke="none" 
	d="
M593.597412,941.682007 
	C585.296631,941.910034 576.645386,941.929626 567.532593,941.903442 
	C575.796387,941.729614 584.521606,941.601562 593.597412,941.682007 
z"/>
<path fill="#0C52AB" opacity="1.000000" stroke="none" 
	d="
M775.567017,941.629211 
	C770.280579,941.856689 764.638794,941.891357 758.536377,941.882263 
	C763.787720,941.704468 769.499756,941.570374 775.567017,941.629211 
z"/>
<path fill="#0C52AB" opacity="1.000000" stroke="none" 
	d="
M374.596375,941.668274 
	C371.938446,941.898682 368.946442,941.932861 365.508179,941.921631 
	C368.128723,941.741455 371.195526,941.606750 374.596375,941.668274 
z"/>
<path fill="#0C52AB" opacity="1.000000" stroke="none" 
	d="
M352.595917,941.662476 
	C349.939240,941.891235 346.947601,941.925415 343.509766,941.914795 
	C346.129395,941.735840 349.195160,941.601868 352.595917,941.662476 
z"/>
<path fill="#0C52AB" opacity="1.000000" stroke="none" 
	d="
M394.662018,941.702942 
	C393.264984,941.925293 391.578918,941.952332 389.473572,941.933472 
	C390.827179,941.760925 392.600067,941.634277 394.662018,941.702942 
z"/>
<path fill="#0C52AB" opacity="1.000000" stroke="none" 
	d="
M385.695831,941.695557 
	C384.906036,941.902954 383.870514,941.930176 382.448547,941.913391 
	C383.191406,941.751404 384.320770,941.633362 385.695831,941.695557 
z"/>
<path fill="#1961B7" opacity="1.000000" stroke="none" 
	d="
M666.800903,600.866272 
	C666.257751,601.122742 665.492920,601.186035 664.353271,601.154846 
	C664.845398,600.931274 665.712280,600.802246 666.800903,600.866272 
z"/>
<path fill="#1961B7" opacity="1.000000" stroke="none" 
	d="
M341.432526,553.081360 
	C342.101562,558.536865 342.498718,563.925781 342.645752,569.321533 
	C342.684509,570.745178 342.423706,572.769165 341.493317,573.528320 
	C336.397949,577.685852 336.219055,583.857300 334.262329,589.693176 
	C333.985718,580.086609 333.926697,570.184143 333.881317,560.281677 
	C333.847626,552.929871 333.855530,552.929810 341.432526,553.081360 
z"/>
<path fill="#1961B7" opacity="1.000000" stroke="none" 
	d="
M371.542847,553.508179 
	C371.271881,553.719299 370.903748,553.583496 370.282379,553.298523 
	C370.501343,553.153381 370.973480,553.157288 371.542847,553.508179 
z"/>
</svg>